<?xml version="1.0" encoding="utf-8"?>
<!-- Generator: Adobe Illustrator 18.0.0, SVG Export Plug-In . SVG Version: 6.00 Build 0)  -->
<!DOCTYPE svg PUBLIC "-//W3C//DTD SVG 1.1//EN" "http://www.w3.org/Graphics/SVG/1.1/DTD/svg11.dtd">
<svg version="1.1" id="Layer_1" xmlns="http://www.w3.org/2000/svg" xmlns:xlink="http://www.w3.org/1999/xlink" x="0px" y="0px"
	 width="174.8px" height="30px" viewBox="0 0 174.8 30" enable-background="new 0 0 174.8 30" xml:space="preserve">
<g id="Ellipse_5_1_" enable-background="new    ">
	<g id="Ellipse_5">
		<g>
			<path fill="#F08F21" d="M15.2,0C7,0,0.2,6.8,0.2,15s6.8,15,15,15s15-6.8,15-15S23.3,0,15.2,0z M15.2,28c-7.2,0-13-5.8-13-13
				S8,2,15.2,2s13,5.8,13,13S22.4,28,15.2,28z"/>
		</g>
	</g>
</g>
<g id="Ellipse_4_1_" enable-background="new    ">
	<g id="Ellipse_4">
		<g>
			<path fill="#F08F21" d="M20.7,17c-0.8,2.2-3,4-5.6,4c-3.3,0-6-2.7-6-6s2.7-6,6-6c2.6,0,4.8,1.6,5.6,4h4.1c-1-4.6-4.9-8-9.7-8
				c-5.5,0-10,4.5-10,10s4.5,10,10,10c4.9,0,8.9-3.4,9.8-8L20.7,17C20.7,16.9,20.7,17,20.7,17z"/>
		</g>
	</g>
</g>
<g id="Rectangle_2_1_" enable-background="new    ">
	<g id="Rectangle_2">
		<g>
			<rect x="35.3" y="3" fill="#605F65" width="1.9" height="24"/>
		</g>
	</g>
</g>
<g>
	<path fill="#605F65" d="M54.8,6.8l7.6,17.1h-2.9l-2.2-5.1h-8.2L47,23.9h-2.6L52,6.7h2.8V6.8z M56.6,16.8l-3.2-7.9h-0.1L50,17
		L56.6,16.8L56.6,16.8z"/>
	<path fill="#605F65" d="M75.8,9.2c-1-0.7-2.1-1-3.4-1c-1.1,0-2.2,0.2-3,0.6s-1.5,0.9-2,1.6c-0.5,0.7-0.9,1.4-1.2,2.2
		c-0.2,0.8-0.4,1.7-0.4,2.6c0,1,0.1,1.9,0.4,2.8c0.2,0.9,0.7,1.6,1.2,2.2c0.5,0.7,1.2,1.2,2,1.6c0.8,0.4,1.8,0.6,3,0.6
		c0.8,0,1.6-0.2,2.2-0.4c0.7-0.2,1.2-0.6,1.7-1c0.4-0.5,0.8-1,1.1-1.6c0.3-0.6,0.4-1.3,0.4-2h2.5c-0.2,2.2-1.1,3.8-2.6,5
		c-1.4,1.2-3.4,1.8-5.8,1.8c-1.5,0-2.8-0.2-3.9-0.7c-1.1-0.5-2-1-2.8-1.9c-0.8-0.9-1.3-1.7-1.6-2.9c-0.4-1.1-0.5-2.2-0.5-3.5
		s0.2-2.4,0.6-3.5s1-2,1.7-2.9c0.7-0.9,1.7-1.4,2.9-2c1.1-0.5,2.5-0.7,3.9-0.7c1,0,1.9,0.1,2.9,0.4c0.9,0.2,1.7,0.6,2.4,1
		c0.7,0.5,1.3,1,1.7,1.7c0.4,0.7,0.8,1.5,0.9,2.4h-2.6C77.5,10.7,76.8,9.8,75.8,9.2z"/>
	<path fill="#605F65" d="M95.4,9.2c-1-0.7-2.2-1-3.5-1c-1.1,0-2.2,0.2-3,0.6c-0.8,0.4-1.5,0.9-2,1.6c-0.5,0.7-0.9,1.4-1.2,2.2
		c-0.2,0.8-0.4,1.7-0.4,2.6c0,1,0.1,1.9,0.4,2.8c0.2,0.9,0.7,1.6,1.2,2.2c0.5,0.7,1.2,1.2,2,1.6c0.8,0.4,1.8,0.6,3,0.6
		c0.8,0,1.6-0.2,2.2-0.4c0.7-0.2,1.2-0.6,1.7-1c0.5-0.5,0.8-1,1.1-1.6c0.3-0.6,0.5-1.3,0.5-2h2.5c-0.2,2.2-1.1,3.8-2.5,5
		c-1.3,1.2-3.4,1.8-5.8,1.8c-1.5,0-2.8-0.2-3.9-0.7c-1.1-0.5-2-1-2.8-1.9c-0.8-0.9-1.3-1.7-1.7-2.9c-0.5-1.2-0.5-2.2-0.5-3.5
		s0.2-2.4,0.6-3.5s1-2,1.7-2.9c0.7-0.9,1.7-1.4,2.8-2c1.1-0.5,2.5-0.7,3.9-0.7c1,0,1.9,0.1,2.8,0.4c0.9,0.4,1.7,0.7,2.4,1.1
		c0.7,0.5,1.3,1,1.7,1.7s0.8,1.5,0.9,2.4H97C97,10.7,96.4,9.8,95.4,9.2z"/>
	<path fill="#605F65" d="M102.8,11.9c0.4-1,1-2,1.7-2.8c0.8-0.8,1.7-1.5,2.9-2c1.1-0.5,2.5-0.8,4-0.8s2.9,0.2,4,0.8
		c1.1,0.5,2.1,1.1,2.9,2c0.8,0.8,1.4,1.8,1.7,2.8c0.3,1,0.6,2.2,0.6,3.4s-0.2,2.3-0.6,3.4s-1,2-1.7,2.9c-0.7,0.9-1.7,1.5-2.9,1.9
		c-1.1,0.5-2.5,0.8-4,0.8s-2.8-0.2-4-0.8c-1.2-0.5-2.1-1.1-2.9-1.9c-0.8-0.8-1.3-1.8-1.7-2.9s-0.6-2.2-0.6-3.4
		C102.2,14.2,102.4,13,102.8,11.9z M105.1,17.9c0.2,0.8,0.7,1.6,1.2,2.2c0.5,0.6,1.2,1.2,2.1,1.7c0.8,0.4,1.9,0.6,3,0.6
		s2.2-0.2,3-0.6s1.6-1,2.1-1.7c0.5-0.8,1-1.4,1.2-2.2c0.2-0.8,0.4-1.7,0.4-2.5c0-0.9-0.1-1.7-0.4-2.5c-0.2-0.8-0.7-1.6-1.2-2.2
		c-0.5-0.7-1.2-1.2-2.1-1.7c-0.8-0.4-1.9-0.6-3-0.6s-2.2,0.2-3,0.6s-1.6,1-2.1,1.7c-0.5,0.7-1,1.4-1.2,2.2s-0.4,1.7-0.4,2.5
		C104.8,16.2,104.9,17,105.1,17.9z"/>
	<path fill="#605F65" d="M132.9,6.8c1.9,0,3.3,0.4,4.4,1.2c1,0.8,1.6,1.9,1.6,3.3c0,1-0.3,2-0.8,2.7c-0.5,0.8-1.4,1.3-2.6,1.6v0.1
		c0.5,0.1,1.1,0.2,1.4,0.5c0.3,0.3,0.6,0.5,0.8,0.8c0.2,0.3,0.4,0.7,0.4,1c0.1,0.4,0.1,0.8,0.2,1.2c0,0.4,0.1,0.8,0.1,1.3
		c0,0.5,0.1,0.8,0.2,1.3c0.1,0.5,0.1,0.8,0.3,1.2c0.2,0.4,0.4,0.7,0.6,1h-2.9c-0.1-0.2-0.3-0.5-0.4-0.8c-0.1-0.3-0.1-0.7-0.1-1
		c0-0.4,0-0.8-0.1-1.2c0-0.5-0.1-0.8-0.1-1.3c-0.1-0.4-0.1-0.8-0.3-1.2c-0.1-0.4-0.3-0.7-0.5-1s-0.5-0.5-0.9-0.7
		c-0.4-0.2-0.9-0.2-1.5-0.2h-6.3v7.3h-2.6v-17H132.9z M133.4,14.5c0.5-0.1,1.1-0.2,1.4-0.4c0.4-0.2,0.8-0.5,1-0.9
		c0.1-0.4,0.4-0.9,0.4-1.5c0-0.9-0.3-1.6-0.8-2.1c-0.5-0.5-1.4-0.8-2.6-0.8h-6.4v6h5.3C132.3,14.6,132.9,14.6,133.4,14.5z"/>
	<path fill="#605F65" d="M149,6.8c3,0,5.2,0.7,6.9,2c1.6,1.4,2.4,3.4,2.4,6.1c0,1.4-0.1,2.7-0.5,3.8c-0.4,1.1-0.9,2-1.6,2.8
		s-1.7,1.3-2.9,1.7c-1.2,0.4-2.5,0.6-4.2,0.6h-6.6v-17H149z M149.2,22c0.3,0,0.7,0,1.1-0.1c0.4-0.1,0.9-0.2,1.4-0.3
		c0.4-0.1,1-0.4,1.4-0.7c0.5-0.3,0.9-0.7,1.3-1.2c0.4-0.5,0.7-1.1,0.9-1.9c0.2-0.8,0.4-1.6,0.4-2.7s-0.2-2-0.4-2.8
		c-0.1-0.8-0.6-1.5-1.1-2.1c-0.5-0.6-1.2-1-2-1.3s-1.8-0.4-3-0.4h-4.3v13.3h4.5v0.2h-0.1V22z"/>
	<path fill="#605F65" d="M174.7,6.8v2h-10.8v5.5h10v2h-10v5.9h10.9V24h-13.4V6.8H174.7z"/>
</g>
</svg>
